<svg xmlns="http://www.w3.org/2000/svg" xmlns:xlink="http://www.w3.org/1999/xlink" width="500" zoomAndPan="magnify" viewBox="0 0 375 374.999991" height="500" preserveAspectRatio="xMidYMid meet" version="1.0"><defs><g/><clipPath id="e0f63bc7be"><path d="M 68.09375 68.09375 L 307.125 68.09375 L 307.125 307.125 L 68.09375 307.125 Z M 68.09375 68.09375 " clip-rule="nonzero"/></clipPath><clipPath id="81262df6f1"><path d="M 103.007812 103.28125 L 270.328125 103.28125 L 270.328125 270.605469 L 103.007812 270.605469 Z M 103.007812 103.28125 " clip-rule="nonzero"/></clipPath><clipPath id="72cdd65891"><path d="M 141.613281 128.421875 L 231.601562 128.421875 L 231.601562 218.410156 L 141.613281 218.410156 Z M 141.613281 128.421875 " clip-rule="nonzero"/></clipPath><clipPath id="b6fd71d569"><path d="M 78.804688 79.082031 L 294.402344 79.082031 L 294.402344 294.679688 L 78.804688 294.679688 Z M 78.804688 79.082031 " clip-rule="nonzero"/></clipPath><clipPath id="e13304a4d3"><path d="M 131.082031 219 L 184 219 L 184 245.550781 L 131.082031 245.550781 Z M 131.082031 219 " clip-rule="nonzero"/></clipPath><clipPath id="8ec46a03c0"><path d="M 131.082031 192 L 242 192 L 242 245.550781 L 131.082031 245.550781 Z M 131.082031 192 " clip-rule="nonzero"/></clipPath></defs><g clip-path="url(#e0f63bc7be)"><path fill="#000000" d="M 187.609375 307.125 C 121.582031 307.125 68.09375 253.269531 68.09375 187.609375 C 68.09375 121.953125 121.582031 68.09375 187.609375 68.09375 C 253.640625 68.09375 307.125 121.582031 307.125 187.609375 C 307.125 253.640625 253.269531 307.125 187.609375 307.125 Z M 187.609375 75.472656 C 125.640625 75.472656 75.472656 125.640625 75.472656 187.609375 C 75.472656 249.582031 125.640625 299.75 187.609375 299.75 C 249.582031 299.75 299.75 249.582031 299.75 187.609375 C 299.75 125.640625 249.214844 75.472656 187.609375 75.472656 Z M 187.609375 75.472656 " fill-opacity="1" fill-rule="nonzero"/></g><g clip-path="url(#81262df6f1)"><path fill="#000000" d="M 270.335938 186.945312 C 270.335938 188.316406 270.300781 189.683594 270.234375 191.050781 C 270.167969 192.417969 270.066406 193.785156 269.933594 195.148438 C 269.796875 196.511719 269.632812 197.867188 269.429688 199.222656 C 269.230469 200.578125 268.996094 201.925781 268.726562 203.269531 C 268.460938 204.613281 268.160156 205.949219 267.828125 207.277344 C 267.496094 208.605469 267.128906 209.921875 266.734375 211.234375 C 266.335938 212.542969 265.90625 213.84375 265.445312 215.132812 C 264.984375 216.421875 264.492188 217.699219 263.96875 218.964844 C 263.441406 220.230469 262.886719 221.480469 262.304688 222.71875 C 261.71875 223.957031 261.101562 225.179688 260.457031 226.386719 C 259.8125 227.59375 259.136719 228.785156 258.433594 229.960938 C 257.730469 231.132812 256.996094 232.289062 256.234375 233.429688 C 255.476562 234.566406 254.6875 235.6875 253.871094 236.785156 C 253.054688 237.886719 252.214844 238.964844 251.34375 240.023438 C 250.476562 241.082031 249.582031 242.117188 248.664062 243.132812 C 247.742188 244.148438 246.800781 245.136719 245.832031 246.105469 C 244.863281 247.074219 243.871094 248.019531 242.855469 248.9375 C 241.84375 249.859375 240.804688 250.75 239.746094 251.621094 C 238.6875 252.488281 237.609375 253.332031 236.511719 254.148438 C 235.410156 254.960938 234.292969 255.75 233.152344 256.511719 C 232.015625 257.273438 230.859375 258.003906 229.683594 258.707031 C 228.507812 259.414062 227.316406 260.085938 226.109375 260.730469 C 224.902344 261.378906 223.679688 261.992188 222.441406 262.578125 C 221.203125 263.164062 219.953125 263.71875 218.6875 264.242188 C 217.421875 264.765625 216.144531 265.257812 214.855469 265.722656 C 213.566406 266.183594 212.269531 266.613281 210.957031 267.007812 C 209.648438 267.40625 208.328125 267.769531 207 268.105469 C 205.671875 268.4375 204.335938 268.738281 202.992188 269.003906 C 201.648438 269.269531 200.300781 269.503906 198.945312 269.707031 C 197.59375 269.90625 196.234375 270.074219 194.871094 270.207031 C 193.507812 270.34375 192.144531 270.445312 190.777344 270.511719 C 189.410156 270.578125 188.039062 270.613281 186.671875 270.613281 C 185.300781 270.613281 183.933594 270.578125 182.566406 270.511719 C 181.199219 270.445312 179.832031 270.34375 178.46875 270.207031 C 177.109375 270.074219 175.75 269.90625 174.394531 269.707031 C 173.039062 269.503906 171.691406 269.269531 170.347656 269.003906 C 169.007812 268.738281 167.671875 268.4375 166.34375 268.105469 C 165.015625 267.769531 163.695312 267.40625 162.382812 267.007812 C 161.074219 266.613281 159.773438 266.183594 158.484375 265.722656 C 157.195312 265.257812 155.917969 264.765625 154.652344 264.242188 C 153.390625 263.71875 152.136719 263.164062 150.898438 262.578125 C 149.660156 261.992188 148.4375 261.378906 147.230469 260.730469 C 146.023438 260.085938 144.832031 259.414062 143.660156 258.707031 C 142.484375 258.003906 141.328125 257.273438 140.1875 256.511719 C 139.050781 255.75 137.933594 254.960938 136.832031 254.148438 C 135.730469 253.332031 134.652344 252.488281 133.59375 251.621094 C 132.535156 250.75 131.5 249.859375 130.484375 248.9375 C 129.46875 248.019531 128.480469 247.074219 127.511719 246.105469 C 126.542969 245.136719 125.597656 244.148438 124.679688 243.132812 C 123.761719 242.117188 122.867188 241.082031 121.996094 240.023438 C 121.128906 238.964844 120.285156 237.886719 119.472656 236.785156 C 118.65625 235.6875 117.867188 234.566406 117.105469 233.429688 C 116.34375 232.289062 115.613281 231.132812 114.910156 229.957031 C 114.207031 228.785156 113.53125 227.59375 112.886719 226.386719 C 112.238281 225.179688 111.625 223.957031 111.039062 222.71875 C 110.453125 221.480469 109.898438 220.230469 109.375 218.964844 C 108.851562 217.699219 108.359375 216.421875 107.898438 215.132812 C 107.4375 213.84375 107.007812 212.542969 106.609375 211.234375 C 106.210938 209.921875 105.847656 208.605469 105.511719 207.277344 C 105.179688 205.949219 104.882812 204.613281 104.613281 203.269531 C 104.347656 201.925781 104.113281 200.578125 103.910156 199.222656 C 103.710938 197.867188 103.542969 196.511719 103.410156 195.148438 C 103.273438 193.785156 103.175781 192.417969 103.105469 191.050781 C 103.039062 189.683594 103.007812 188.316406 103.007812 186.945312 C 103.007812 185.578125 103.039062 184.210938 103.105469 182.839844 C 103.175781 181.472656 103.273438 180.109375 103.410156 178.746094 C 103.542969 177.382812 103.710938 176.023438 103.910156 174.671875 C 104.113281 173.316406 104.347656 171.96875 104.613281 170.625 C 104.882812 169.28125 105.179688 167.945312 105.511719 166.617188 C 105.847656 165.289062 106.210938 163.96875 106.609375 162.660156 C 107.007812 161.351562 107.4375 160.050781 107.898438 158.761719 C 108.359375 157.472656 108.851562 156.195312 109.375 154.929688 C 109.898438 153.664062 110.453125 152.414062 111.039062 151.175781 C 111.625 149.9375 112.238281 148.714844 112.886719 147.507812 C 113.53125 146.300781 114.207031 145.109375 114.910156 143.933594 C 115.613281 142.761719 116.34375 141.605469 117.105469 140.464844 C 117.867188 139.328125 118.65625 138.207031 119.472656 137.109375 C 120.285156 136.007812 121.128906 134.929688 121.996094 133.871094 C 122.867188 132.8125 123.761719 131.777344 124.679688 130.761719 C 125.597656 129.746094 126.542969 128.753906 127.511719 127.785156 C 128.480469 126.820312 129.46875 125.875 130.484375 124.957031 C 131.5 124.035156 132.535156 123.140625 133.59375 122.273438 C 134.652344 121.40625 135.730469 120.5625 136.832031 119.746094 C 137.933594 118.929688 139.050781 118.144531 140.1875 117.382812 C 141.328125 116.621094 142.484375 115.890625 143.660156 115.183594 C 144.832031 114.480469 146.023438 113.804688 147.230469 113.160156 C 148.4375 112.515625 149.660156 111.898438 150.898438 111.316406 C 152.136719 110.730469 153.390625 110.175781 154.652344 109.652344 C 155.917969 109.125 157.195312 108.632812 158.484375 108.171875 C 159.773438 107.710938 161.074219 107.28125 162.382812 106.882812 C 163.695312 106.488281 165.015625 106.121094 166.34375 105.789062 C 167.671875 105.457031 169.007812 105.15625 170.347656 104.890625 C 171.691406 104.621094 173.039062 104.386719 174.394531 104.1875 C 175.75 103.988281 177.109375 103.820312 178.46875 103.683594 C 179.832031 103.550781 181.199219 103.449219 182.566406 103.382812 C 183.933594 103.316406 185.300781 103.28125 186.671875 103.28125 C 188.039062 103.28125 189.410156 103.316406 190.777344 103.382812 C 192.144531 103.449219 193.507812 103.550781 194.871094 103.683594 C 196.234375 103.820312 197.59375 103.988281 198.945312 104.1875 C 200.300781 104.386719 201.648438 104.621094 202.992188 104.890625 C 204.335938 105.15625 205.671875 105.457031 207 105.789062 C 208.328125 106.121094 209.648438 106.488281 210.957031 106.882812 C 212.269531 107.28125 213.566406 107.710938 214.855469 108.171875 C 216.144531 108.632812 217.421875 109.125 218.6875 109.652344 C 219.953125 110.175781 221.203125 110.730469 222.441406 111.316406 C 223.679688 111.898438 224.902344 112.515625 226.109375 113.160156 C 227.316406 113.804688 228.507812 114.480469 229.683594 115.183594 C 230.859375 115.890625 232.015625 116.621094 233.152344 117.382812 C 234.292969 118.144531 235.410156 118.929688 236.511719 119.746094 C 237.609375 120.5625 238.6875 121.40625 239.746094 122.273438 C 240.804688 123.140625 241.84375 124.035156 242.855469 124.957031 C 243.871094 125.875 244.863281 126.820312 245.832031 127.785156 C 246.800781 128.753906 247.742188 129.746094 248.664062 130.761719 C 249.582031 131.777344 250.476562 132.8125 251.34375 133.871094 C 252.214844 134.929688 253.054688 136.007812 253.871094 137.109375 C 254.6875 138.207031 255.476562 139.328125 256.234375 140.464844 C 256.996094 141.605469 257.730469 142.761719 258.433594 143.933594 C 259.136719 145.109375 259.8125 146.300781 260.457031 147.507812 C 261.101562 148.714844 261.71875 149.9375 262.304688 151.175781 C 262.886719 152.414062 263.441406 153.664062 263.96875 154.929688 C 264.492188 156.195312 264.984375 157.472656 265.445312 158.761719 C 265.90625 160.050781 266.335938 161.351562 266.734375 162.660156 C 267.128906 163.96875 267.496094 165.289062 267.828125 166.617188 C 268.160156 167.945312 268.460938 169.28125 268.726562 170.625 C 268.996094 171.96875 269.230469 173.316406 269.429688 174.671875 C 269.632812 176.023438 269.796875 177.382812 269.933594 178.746094 C 270.066406 180.109375 270.167969 181.472656 270.234375 182.839844 C 270.300781 184.210938 270.335938 185.578125 270.335938 186.945312 Z M 270.335938 186.945312 " fill-opacity="1" fill-rule="nonzero"/></g><path fill="#ffffff" d="M 229.972656 173.484375 C 229.972656 197.398438 210.585938 216.785156 186.671875 216.785156 C 162.757812 216.785156 143.371094 197.398438 143.371094 173.484375 C 143.371094 149.566406 162.757812 130.179688 186.671875 130.179688 C 210.585938 130.179688 229.972656 149.566406 229.972656 173.484375 " fill-opacity="1" fill-rule="nonzero"/><g clip-path="url(#72cdd65891)"><path fill="#050607" d="M 228.214844 173.484375 C 228.214844 174.636719 228.171875 175.789062 228.078125 176.9375 C 228.035156 177.496094 227.980469 178.054688 227.914062 178.609375 C 227.898438 178.746094 227.882812 178.886719 227.863281 179.023438 C 227.824219 179.347656 227.921875 178.636719 227.855469 179.085938 C 227.816406 179.363281 227.777344 179.636719 227.734375 179.910156 C 227.378906 182.113281 226.859375 184.285156 226.167969 186.40625 C 225.835938 187.429688 225.460938 188.445312 225.054688 189.445312 C 225.023438 189.515625 224.992188 189.585938 224.964844 189.65625 C 224.890625 189.839844 225.03125 189.5 225.03125 189.503906 C 225.019531 189.621094 224.917969 189.761719 224.871094 189.875 C 224.757812 190.136719 224.640625 190.398438 224.519531 190.660156 C 224.296875 191.148438 224.0625 191.628906 223.820312 192.109375 C 222.851562 194.027344 221.738281 195.871094 220.492188 197.625 C 220.339844 197.839844 220.183594 198.058594 220.027344 198.269531 C 219.894531 198.449219 219.707031 198.839844 219.515625 198.953125 C 219.511719 198.953125 219.734375 198.667969 219.617188 198.820312 C 219.578125 198.863281 219.546875 198.910156 219.511719 198.953125 C 219.429688 199.058594 219.347656 199.164062 219.261719 199.265625 C 219.085938 199.488281 218.90625 199.707031 218.726562 199.925781 C 218.046875 200.742188 217.339844 201.53125 216.605469 202.292969 C 215.855469 203.066406 215.078125 203.816406 214.273438 204.535156 C 213.878906 204.886719 213.480469 205.234375 213.070312 205.574219 C 212.867188 205.742188 212.664062 205.910156 212.457031 206.074219 C 212.351562 206.15625 212.246094 206.238281 212.144531 206.320312 C 212.097656 206.355469 212.054688 206.390625 212.007812 206.425781 C 211.832031 206.566406 212.359375 206.160156 212.050781 206.394531 C 210.335938 207.691406 208.542969 208.871094 206.664062 209.910156 C 205.710938 210.4375 204.738281 210.925781 203.746094 211.378906 C 203.519531 211.480469 203.292969 211.582031 203.0625 211.683594 C 202.953125 211.730469 202.808594 211.832031 202.691406 211.839844 C 202.6875 211.84375 203.03125 211.703125 202.847656 211.777344 C 202.757812 211.8125 202.671875 211.847656 202.582031 211.886719 C 202.082031 212.089844 201.578125 212.285156 201.074219 212.46875 C 199.007812 213.222656 196.886719 213.820312 194.730469 214.25 C 194.167969 214.363281 193.605469 214.464844 193.042969 214.554688 C 192.785156 214.59375 192.53125 214.632812 192.277344 214.667969 C 191.824219 214.730469 192.539062 214.636719 192.210938 214.675781 C 192.054688 214.695312 191.898438 214.714844 191.738281 214.734375 C 190.601562 214.867188 189.460938 214.953125 188.316406 214.996094 C 186.039062 215.082031 183.75 214.988281 181.488281 214.71875 C 181.347656 214.703125 181.210938 214.683594 181.074219 214.667969 C 180.871094 214.644531 181.25 214.691406 181.242188 214.691406 C 181.179688 214.699219 181.0625 214.667969 181.007812 214.660156 C 180.734375 214.621094 180.460938 214.578125 180.1875 214.535156 C 179.640625 214.445312 179.097656 214.347656 178.558594 214.238281 C 177.464844 214.019531 176.382812 213.757812 175.308594 213.453125 C 174.246094 213.152344 173.199219 212.8125 172.164062 212.429688 C 171.65625 212.242188 171.15625 212.046875 170.65625 211.84375 C 170.609375 211.824219 170.472656 211.785156 170.445312 211.753906 C 170.441406 211.75 170.777344 211.898438 170.597656 211.820312 C 170.476562 211.765625 170.351562 211.714844 170.226562 211.660156 C 169.984375 211.550781 169.738281 211.441406 169.492188 211.328125 C 167.519531 210.421875 165.613281 209.367188 163.800781 208.171875 C 163.355469 207.878906 162.917969 207.578125 162.484375 207.273438 C 162.265625 207.117188 162.054688 206.960938 161.839844 206.804688 C 161.664062 206.671875 161.316406 206.511719 161.203125 206.324219 C 161.320312 206.511719 161.4375 206.507812 161.289062 206.390625 C 161.246094 206.355469 161.199219 206.320312 161.15625 206.285156 C 161.050781 206.203125 160.949219 206.121094 160.84375 206.039062 C 160.625 205.859375 160.402344 205.683594 160.1875 205.5 C 159.777344 205.160156 159.378906 204.8125 158.984375 204.460938 C 157.394531 203.03125 155.910156 201.484375 154.546875 199.839844 C 154.378906 199.632812 154.210938 199.429688 154.042969 199.222656 C 153.960938 199.117188 153.878906 199.011719 153.796875 198.910156 C 153.773438 198.875 153.707031 198.816406 153.695312 198.777344 C 153.714844 198.84375 153.90625 199.054688 153.761719 198.859375 C 153.429688 198.421875 153.101562 197.980469 152.785156 197.53125 C 152.160156 196.648438 151.570312 195.738281 151.015625 194.8125 C 150.464844 193.894531 149.949219 192.960938 149.472656 192.007812 C 149.230469 191.527344 149 191.042969 148.777344 190.558594 C 148.664062 190.3125 148.554688 190.066406 148.449219 189.820312 C 148.421875 189.757812 148.257812 189.339844 148.355469 189.609375 C 148.453125 189.867188 148.273438 189.398438 148.246094 189.339844 C 147.421875 187.3125 146.75 185.222656 146.242188 183.089844 C 145.984375 182 145.765625 180.902344 145.59375 179.792969 C 145.554688 179.539062 145.515625 179.285156 145.480469 179.03125 C 145.433594 178.707031 145.523438 179.378906 145.472656 178.964844 C 145.453125 178.808594 145.433594 178.648438 145.414062 178.492188 C 145.351562 177.933594 145.296875 177.375 145.253906 176.820312 C 145.082031 174.539062 145.085938 172.246094 145.269531 169.96875 C 145.316406 169.390625 145.371094 168.8125 145.441406 168.238281 C 145.460938 168.101562 145.484375 167.960938 145.496094 167.824219 C 145.496094 167.820312 145.441406 168.199219 145.472656 167.996094 C 145.480469 167.9375 145.488281 167.878906 145.496094 167.820312 C 145.539062 167.523438 145.582031 167.230469 145.628906 166.9375 C 145.808594 165.832031 146.035156 164.734375 146.296875 163.648438 C 146.816406 161.519531 147.507812 159.441406 148.335938 157.414062 C 148.488281 157.039062 148.234375 157.644531 148.359375 157.355469 C 148.40625 157.25 148.449219 157.144531 148.496094 157.039062 C 148.609375 156.777344 148.726562 156.515625 148.847656 156.253906 C 149.082031 155.75 149.324219 155.25 149.574219 154.757812 C 150.058594 153.804688 150.578125 152.871094 151.132812 151.960938 C 151.691406 151.035156 152.289062 150.128906 152.917969 149.25 C 153.058594 149.046875 153.203125 148.847656 153.351562 148.652344 C 153.429688 148.542969 153.507812 148.4375 153.589844 148.332031 C 153.628906 148.28125 153.925781 147.886719 153.761719 148.101562 C 153.605469 148.3125 153.855469 147.984375 153.902344 147.921875 C 153.984375 147.816406 154.070312 147.714844 154.152344 147.609375 C 154.328125 147.390625 154.507812 147.171875 154.691406 146.953125 C 156.0625 145.3125 157.554688 143.777344 159.152344 142.355469 C 159.550781 142.003906 159.953125 141.660156 160.359375 141.320312 C 160.5625 141.152344 160.769531 140.984375 160.976562 140.820312 C 161.066406 140.75 161.15625 140.679688 161.246094 140.609375 C 161.574219 140.351562 161.011719 140.785156 161.339844 140.539062 C 162.203125 139.886719 163.082031 139.257812 163.988281 138.667969 C 165.796875 137.496094 167.691406 136.457031 169.652344 135.5625 C 169.894531 135.453125 170.140625 135.34375 170.386719 135.238281 C 170.441406 135.214844 170.492188 135.191406 170.546875 135.167969 C 170.730469 135.089844 170.578125 135.074219 170.445312 135.210938 C 170.519531 135.132812 170.769531 135.078125 170.871094 135.035156 C 171.371094 134.832031 171.875 134.640625 172.378906 134.457031 C 173.398438 134.085938 174.433594 133.757812 175.476562 133.464844 C 176.550781 133.164062 177.636719 132.90625 178.730469 132.691406 C 179.273438 132.585938 179.816406 132.488281 180.359375 132.402344 C 180.636719 132.359375 180.910156 132.320312 181.183594 132.28125 C 181.386719 132.253906 181.007812 132.304688 181.011719 132.304688 C 181.089844 132.296875 181.171875 132.285156 181.25 132.273438 C 181.40625 132.253906 181.566406 132.238281 181.722656 132.21875 C 183.992188 131.960938 186.28125 131.882812 188.558594 131.980469 C 189.703125 132.027344 190.84375 132.121094 191.976562 132.261719 C 192.09375 132.273438 192.210938 132.292969 192.332031 132.304688 C 191.824219 132.257812 192.277344 132.296875 192.394531 132.316406 C 192.6875 132.359375 192.980469 132.402344 193.273438 132.449219 C 193.820312 132.539062 194.363281 132.640625 194.902344 132.75 C 197.074219 133.191406 199.210938 133.804688 201.289062 134.578125 C 201.796875 134.765625 202.296875 134.964844 202.792969 135.167969 C 203.085938 135.289062 202.445312 135.015625 202.851562 135.191406 C 202.957031 135.238281 203.0625 135.285156 203.167969 135.328125 C 203.429688 135.445312 203.695312 135.5625 203.953125 135.683594 C 204.941406 136.140625 205.914062 136.636719 206.863281 137.167969 C 207.792969 137.6875 208.703125 138.238281 209.59375 138.824219 C 210.050781 139.128906 210.503906 139.441406 210.953125 139.761719 C 211.152344 139.902344 211.351562 140.050781 211.550781 140.195312 C 211.65625 140.273438 211.761719 140.355469 211.867188 140.433594 C 211.929688 140.480469 211.988281 140.527344 212.050781 140.570312 C 212.242188 140.71875 212.035156 140.527344 211.964844 140.503906 C 212.167969 140.570312 212.417969 140.863281 212.585938 140.996094 C 212.792969 141.164062 213 141.332031 213.203125 141.503906 C 213.625 141.855469 214.039062 142.214844 214.445312 142.582031 C 215.230469 143.292969 215.992188 144.03125 216.722656 144.796875 C 217.46875 145.574219 218.183594 146.382812 218.871094 147.214844 C 219.039062 147.417969 219.207031 147.625 219.371094 147.832031 C 219.441406 147.921875 219.511719 148.011719 219.582031 148.101562 C 219.695312 148.25 219.699219 148.128906 219.515625 148.015625 C 219.566406 148.046875 219.617188 148.148438 219.652344 148.195312 C 219.972656 148.617188 220.285156 149.046875 220.59375 149.480469 C 221.839844 151.253906 222.957031 153.121094 223.921875 155.0625 C 224.164062 155.542969 224.394531 156.027344 224.613281 156.515625 C 224.726562 156.757812 224.835938 157.003906 224.941406 157.25 C 224.964844 157.304688 224.984375 157.355469 225.007812 157.410156 C 225.085938 157.589844 224.9375 157.25 224.941406 157.253906 C 225.023438 157.324219 225.078125 157.578125 225.117188 157.679688 C 225.53125 158.699219 225.90625 159.734375 226.238281 160.78125 C 226.910156 162.890625 227.421875 165.046875 227.761719 167.230469 C 227.796875 167.472656 227.910156 167.816406 227.878906 168.054688 C 227.878906 168.0625 227.832031 167.679688 227.855469 167.882812 C 227.867188 167.960938 227.878906 168.042969 227.886719 168.121094 C 227.902344 168.257812 227.921875 168.398438 227.9375 168.535156 C 227.996094 169.070312 228.046875 169.609375 228.089844 170.148438 C 228.175781 171.257812 228.214844 172.371094 228.214844 173.484375 C 228.21875 174.402344 229.023438 175.285156 229.972656 175.242188 C 230.925781 175.199219 231.734375 174.46875 231.730469 173.484375 C 231.726562 168.796875 231.007812 164.085938 229.558594 159.625 C 228.160156 155.320312 226.121094 151.210938 223.496094 147.519531 C 220.808594 143.742188 217.59375 140.425781 213.914062 137.605469 C 210.320312 134.847656 206.3125 132.6875 202.0625 131.125 C 197.683594 129.519531 193.035156 128.636719 188.378906 128.457031 C 183.671875 128.273438 178.90625 128.839844 174.375 130.121094 C 170.011719 131.359375 165.8125 133.265625 162.023438 135.757812 C 158.261719 138.230469 154.851562 141.253906 151.988281 144.730469 C 149.03125 148.320312 146.664062 152.285156 144.898438 156.585938 C 143.136719 160.886719 142.101562 165.457031 141.742188 170.085938 C 141.378906 174.804688 141.777344 179.601562 142.894531 184.195312 C 143.964844 188.613281 145.738281 192.894531 148.09375 196.78125 C 150.425781 200.628906 153.34375 204.148438 156.710938 207.132812 C 160.078125 210.121094 163.875 212.628906 167.980469 214.484375 C 172.320312 216.445312 176.875 217.699219 181.605469 218.25 C 186.324219 218.800781 191.125 218.558594 195.78125 217.617188 C 200.253906 216.710938 204.597656 215.082031 208.585938 212.863281 C 212.519531 210.675781 216.140625 207.871094 219.246094 204.613281 C 222.347656 201.367188 224.984375 197.648438 226.984375 193.625 C 229.03125 189.511719 230.472656 185.097656 231.167969 180.550781 C 231.527344 178.210938 231.726562 175.851562 231.730469 173.484375 C 231.734375 172.5625 230.921875 171.683594 229.972656 171.726562 C 229.019531 171.769531 228.21875 172.496094 228.214844 173.484375 " fill-opacity="1" fill-rule="nonzero"/></g><path fill="#050607" d="M 208.230469 179.246094 C 208.230469 180.285156 208.160156 181.324219 208.027344 182.355469 C 208.046875 182.199219 208.066406 182.042969 208.089844 181.890625 C 207.8125 183.929688 207.269531 185.925781 206.472656 187.824219 C 206.53125 187.6875 206.59375 187.546875 206.652344 187.40625 C 205.867188 189.257812 204.847656 191.003906 203.621094 192.597656 C 203.710938 192.480469 203.800781 192.363281 203.894531 192.242188 C 202.671875 193.824219 201.25 195.242188 199.667969 196.46875 C 199.789062 196.375 199.90625 196.285156 200.023438 196.191406 C 198.429688 197.421875 196.6875 198.441406 194.832031 199.222656 C 194.972656 199.164062 195.113281 199.105469 195.253906 199.046875 C 193.351562 199.84375 191.355469 200.386719 189.316406 200.660156 C 189.472656 200.640625 189.628906 200.621094 189.78125 200.597656 C 187.71875 200.871094 185.625 200.871094 183.5625 200.597656 C 183.71875 200.621094 183.871094 200.640625 184.027344 200.660156 C 181.988281 200.386719 179.988281 199.84375 178.09375 199.046875 C 178.230469 199.105469 178.371094 199.164062 178.511719 199.222656 C 176.660156 198.441406 174.914062 197.421875 173.320312 196.191406 C 173.4375 196.285156 173.554688 196.375 173.675781 196.46875 C 172.09375 195.242188 170.675781 193.824219 169.449219 192.242188 C 169.542969 192.363281 169.632812 192.480469 169.726562 192.597656 C 168.496094 191.003906 167.476562 189.257812 166.691406 187.40625 C 166.753906 187.546875 166.8125 187.6875 166.871094 187.824219 C 166.074219 185.925781 165.53125 183.929688 165.253906 181.890625 C 165.277344 182.042969 165.296875 182.199219 165.316406 182.355469 C 165.183594 181.324219 165.113281 180.285156 165.113281 179.246094 C 165.109375 178.324219 164.304688 177.445312 163.355469 177.488281 C 162.402344 177.53125 161.59375 178.261719 161.597656 179.246094 C 161.601562 181.835938 161.996094 184.457031 162.796875 186.921875 C 163.570312 189.304688 164.6875 191.59375 166.140625 193.636719 C 166.902344 194.703125 167.730469 195.726562 168.640625 196.671875 C 169.554688 197.617188 170.550781 198.464844 171.59375 199.265625 C 173.585938 200.792969 175.8125 201.972656 178.167969 202.835938 C 180.59375 203.726562 183.175781 204.203125 185.753906 204.300781 C 188.355469 204.402344 191.003906 204.085938 193.507812 203.375 C 195.921875 202.695312 198.257812 201.636719 200.355469 200.257812 C 202.425781 198.898438 204.320312 197.242188 205.902344 195.328125 C 206.738281 194.3125 207.515625 193.246094 208.191406 192.121094 C 208.871094 190.992188 209.433594 189.804688 209.933594 188.589844 C 210.921875 186.195312 211.476562 183.648438 211.675781 181.074219 C 211.722656 180.464844 211.746094 179.855469 211.746094 179.246094 C 211.75 178.324219 210.9375 177.445312 209.988281 177.488281 C 209.035156 177.53125 208.234375 178.261719 208.230469 179.246094 " fill-opacity="1" fill-rule="nonzero"/><path fill="#050607" d="M 179.65625 161.496094 C 179.65625 165.378906 177.667969 168.527344 175.214844 168.527344 C 172.765625 168.527344 170.777344 165.378906 170.777344 161.496094 C 170.777344 157.609375 172.765625 154.464844 175.214844 154.464844 C 177.667969 154.464844 179.65625 157.609375 179.65625 161.496094 " fill-opacity="1" fill-rule="nonzero"/><path fill="#050607" d="M 202.566406 161.496094 C 202.566406 165.378906 200.578125 168.527344 198.128906 168.527344 C 195.675781 168.527344 193.6875 165.378906 193.6875 161.496094 C 193.6875 157.609375 195.675781 154.464844 198.128906 154.464844 C 200.578125 154.464844 202.566406 157.609375 202.566406 161.496094 " fill-opacity="1" fill-rule="nonzero"/><path fill="#050607" d="M 160.929688 180.550781 C 161.558594 180.347656 162.191406 180.148438 162.820312 179.945312 C 163.824219 179.625 164.828125 179.304688 165.835938 178.984375 C 166.0625 178.914062 166.292969 178.839844 166.519531 178.765625 C 166.953125 178.628906 167.339844 178.355469 167.570312 177.960938 C 167.699219 177.757812 167.769531 177.539062 167.78125 177.304688 C 167.832031 177.070312 167.820312 176.839844 167.746094 176.605469 C 167.609375 176.179688 167.347656 175.769531 166.941406 175.554688 C 166.53125 175.339844 166.039062 175.230469 165.585938 175.378906 C 164.953125 175.578125 164.324219 175.78125 163.691406 175.980469 C 162.6875 176.300781 161.683594 176.621094 160.679688 176.941406 C 160.453125 177.011719 160.222656 177.085938 159.992188 177.160156 C 159.5625 177.296875 159.175781 177.570312 158.945312 177.96875 C 158.816406 178.167969 158.746094 178.386719 158.734375 178.621094 C 158.683594 178.855469 158.691406 179.089844 158.765625 179.320312 C 158.902344 179.746094 159.167969 180.15625 159.574219 180.371094 C 159.984375 180.589844 160.476562 180.695312 160.929688 180.550781 " fill-opacity="1" fill-rule="nonzero"/><path fill="#050607" d="M 213.351562 177.160156 C 212.71875 176.957031 212.089844 176.757812 211.457031 176.554688 C 210.453125 176.234375 209.449219 175.914062 208.445312 175.59375 C 208.214844 175.523438 207.988281 175.449219 207.757812 175.378906 C 207.523438 175.304688 207.292969 175.292969 207.058594 175.34375 C 206.824219 175.355469 206.605469 175.425781 206.402344 175.554688 C 206.199219 175.664062 206.035156 175.816406 205.910156 176.007812 C 205.753906 176.175781 205.652344 176.375 205.597656 176.605469 C 205.492188 177.054688 205.515625 177.558594 205.773438 177.960938 C 206.027344 178.351562 206.371094 178.625 206.824219 178.765625 C 207.453125 178.96875 208.085938 179.167969 208.714844 179.371094 C 209.71875 179.691406 210.726562 180.011719 211.730469 180.332031 C 211.957031 180.402344 212.1875 180.476562 212.414062 180.550781 C 212.648438 180.621094 212.882812 180.632812 213.117188 180.582031 C 213.351562 180.570312 213.570312 180.5 213.769531 180.371094 C 213.976562 180.261719 214.140625 180.109375 214.261719 179.921875 C 214.417969 179.75 214.523438 179.550781 214.578125 179.320312 C 214.679688 178.871094 214.660156 178.367188 214.402344 177.96875 C 214.144531 177.574219 213.800781 177.304688 213.351562 177.160156 " fill-opacity="1" fill-rule="nonzero"/><g clip-path="url(#b6fd71d569)"><path fill="#ffffff" d="M 186.640625 79.082031 C 127.0625 79.082031 78.804688 127.339844 78.804688 186.917969 C 78.804688 246.496094 127.0625 294.75 186.640625 294.75 C 246.21875 294.75 294.476562 246.496094 294.476562 186.917969 C 294.476562 127.339844 246.21875 79.082031 186.640625 79.082031 Z M 186.640625 273.183594 C 138.976562 273.183594 100.371094 234.578125 100.371094 186.917969 C 100.371094 139.253906 138.976562 100.648438 186.640625 100.648438 C 234.304688 100.648438 272.910156 139.253906 272.910156 186.917969 C 272.910156 234.578125 234.304688 273.183594 186.640625 273.183594 Z M 186.640625 273.183594 " fill-opacity="1" fill-rule="nonzero"/></g><g clip-path="url(#e13304a4d3)"><path fill="#ffffff" d="M 183.257812 222.050781 C 170.304688 227.039062 156.269531 233.636719 152.089844 238.273438 C 149.558594 241.074219 151.40625 243.789062 145.902344 244.925781 L 146.851562 242.445312 L 146.125 239.027344 L 148.019531 235.703125 L 144.613281 238.890625 L 145.050781 242.492188 L 144.199219 244.777344 L 143.5 245.242188 L 143.496094 245.242188 C 139.5 245.441406 137.949219 243.558594 135.863281 241.824219 C 135.097656 241.1875 134.910156 240.394531 135.011719 239.617188 L 138.285156 234.984375 L 136.324219 232.003906 L 136.976562 234.773438 L 135.789062 235.855469 C 135.550781 235.777344 135.289062 235.707031 135.007812 235.652344 C 134.035156 235.449219 131.359375 230.894531 131.359375 229.980469 C 131.359375 229.277344 132.828125 226.429688 135.597656 224.671875 C 136.609375 225.054688 140.066406 226.277344 140.066406 226.277344 L 141.636719 229.761719 L 141.550781 232.761719 L 142.65625 229.40625 L 141.164062 225.402344 L 136.367188 224.234375 C 136.957031 223.925781 137.601562 223.679688 138.296875 223.503906 C 138.828125 223.375 139.429688 223.316406 140.078125 223.316406 C 143.378906 223.316406 147.859375 224.816406 150.375 225.773438 C 150.375 225.773438 175.394531 219.0625 175.402344 219.0625 C 177.714844 219.882812 180.222656 220.882812 183.257812 222.050781 Z M 183.257812 222.050781 " fill-opacity="1" fill-rule="nonzero"/></g><path fill="#ffffff" d="M 241.960938 205.996094 C 241.808594 204.871094 240.296875 203.507812 238.855469 202.445312 L 233.582031 200.777344 L 232.976562 197.933594 L 234.316406 200.0625 L 236.507812 200.34375 C 236.675781 200.152344 236.902344 199.890625 237.164062 199.566406 C 237.75 198.832031 238.535156 196.308594 237.847656 194.4375 C 237.199219 192.671875 230.699219 191.671875 227.429688 192.757812 L 227.113281 192.871094 L 227.109375 192.871094 C 227.03125 192.90625 226.957031 192.9375 226.882812 192.972656 C 225.722656 193.511719 225.90625 196.0625 224.828125 198.261719 C 223.753906 200.460938 221.550781 201.824219 221.550781 201.824219 C 221.550781 201.824219 208.863281 207.503906 195.054688 212.582031 C 192.28125 213.597656 192.269531 213.648438 189.46875 214.578125 C 192.21875 215.492188 194.425781 216.371094 197.003906 217.335938 C 212.929688 211.667969 221.691406 209.335938 225.316406 208.519531 C 228.941406 207.707031 234.8125 212.671875 236.769531 212.347656 C 238.730469 212.019531 242.253906 208.195312 241.960938 205.996094 Z M 235.441406 210.484375 L 232.976562 209.269531 L 230.96875 206.917969 L 227.589844 205.546875 L 231.878906 206.160156 L 233.890625 208.738281 L 235.917969 209.878906 L 237.632812 209.878906 Z M 235.441406 210.484375 " fill-opacity="1" fill-rule="nonzero"/><g clip-path="url(#8ec46a03c0)"><path fill="#ffffff" d="M 238.324219 235.648438 C 239.300781 235.445312 241.976562 230.890625 241.976562 229.980469 C 241.976562 229.273438 240.507812 226.425781 237.738281 224.671875 C 236.730469 225.050781 233.269531 226.277344 233.269531 226.277344 L 231.703125 229.761719 L 231.785156 232.757812 L 230.679688 229.402344 L 232.167969 225.402344 L 236.972656 224.230469 C 236.378906 223.925781 235.734375 223.675781 235.042969 223.503906 C 234.507812 223.371094 233.90625 223.3125 233.257812 223.3125 C 229.957031 223.3125 225.472656 224.816406 222.960938 225.769531 C 222.960938 225.769531 210.070312 222.800781 194.8125 218.113281 C 192.15625 217.296875 189.421875 216.429688 186.671875 215.511719 C 183.875 214.578125 181.058594 213.601562 178.289062 212.582031 C 170.105469 209.574219 162.324219 206.355469 157.335938 204.230469 L 157.570312 204.902344 L 158.070312 206.195312 L 162.546875 207.828125 L 164.644531 210.484375 L 162.359375 208.433594 L 156.699219 206.765625 L 156.152344 205.167969 L 154.976562 203.214844 C 152.957031 202.34375 151.789062 201.820312 151.789062 201.820312 C 151.789062 201.820312 149.585938 200.457031 148.507812 198.261719 C 147.429688 196.0625 147.613281 193.511719 146.453125 192.96875 C 146.378906 192.933594 146.304688 192.902344 146.222656 192.871094 L 147.320312 195.054688 L 146.875 197.070312 L 146.234375 199.386719 L 144.136719 201.21875 L 145.582031 198.945312 L 145.976562 197.097656 L 146.347656 195.253906 C 146.347656 195.253906 146.105469 193.597656 145.910156 192.753906 C 142.640625 191.671875 136.136719 192.667969 135.492188 194.433594 C 134.804688 196.304688 135.585938 198.832031 136.171875 199.566406 C 136.4375 199.890625 136.660156 200.152344 136.828125 200.34375 L 136.832031 200.34375 L 139.027344 200.0625 L 140.359375 197.9375 L 139.757812 200.78125 L 134.480469 202.449219 C 133.042969 203.511719 131.527344 204.871094 131.378906 205.996094 C 131.082031 208.195312 134.609375 212.023438 136.566406 212.347656 C 138.523438 212.675781 144.398438 207.710938 148.019531 208.523438 C 151.640625 209.339844 162.597656 212.449219 178.527344 218.117188 C 178.53125 218.117188 178.53125 218.121094 178.535156 218.121094 C 180.847656 218.941406 183.636719 219.972656 186.671875 221.140625 C 199.621094 226.128906 217.070312 233.636719 221.246094 238.273438 C 223.773438 241.074219 221.929688 243.792969 227.433594 244.925781 L 226.484375 242.445312 L 227.207031 239.027344 L 225.316406 235.703125 L 228.71875 238.890625 L 228.285156 242.492188 L 229.136719 244.777344 L 229.835938 245.242188 C 233.835938 245.445312 235.386719 243.558594 237.472656 241.824219 C 238.238281 241.1875 238.425781 240.402344 238.324219 239.621094 C 238.300781 239.453125 238.269531 239.289062 238.222656 239.125 C 237.800781 237.609375 236.5 236.257812 236.5 236.257812 C 236.5 236.257812 236.9375 236.046875 237.546875 235.855469 C 237.785156 235.777344 238.050781 235.707031 238.324219 235.648438 Z M 142.367188 206.917969 L 140.359375 209.273438 L 137.894531 210.488281 L 135.703125 209.882812 L 137.417969 209.882812 L 139.449219 208.742188 L 141.457031 206.160156 L 145.746094 205.550781 Z M 211.34375 228.238281 L 204.859375 227.261719 L 200.386719 224.152344 L 205.320312 227.035156 L 212.164062 227.414062 L 215.722656 230.375 L 216.636719 232.753906 Z M 211.34375 228.238281 " fill-opacity="1" fill-rule="nonzero"/></g><g fill="#000000" fill-opacity="1"><g transform="translate(94.900101, 176.437699)"><g><path d="M -11.984375 -9.65625 C -11.492188 -11.84375 -10.550781 -13.382812 -9.15625 -14.28125 C -7.769531 -15.175781 -5.960938 -15.375 -3.734375 -14.875 C -1.492188 -14.363281 0.0546875 -13.40625 0.921875 -12 C 1.796875 -10.59375 1.988281 -8.796875 1.5 -6.609375 L 0.390625 -1.75 L -13.09375 -4.796875 Z M -0.78125 -6.953125 C -0.457031 -8.335938 -0.570312 -9.457031 -1.125 -10.3125 C -1.6875 -11.164062 -2.757812 -11.773438 -4.34375 -12.140625 C -5.914062 -12.492188 -7.132812 -12.40625 -8 -11.875 C -8.875 -11.34375 -9.472656 -10.382812 -9.796875 -9 L -10.25 -6.96875 L -1.234375 -4.921875 Z M -0.78125 -6.953125 "/></g></g></g><g fill="#000000" fill-opacity="1"><g transform="translate(98.006699, 162.888308)"><g><path d="M -4.109375 -6.375 L -0.578125 -5.046875 L 1.734375 -11.234375 L 3.890625 -10.4375 L 0.625 -1.6875 L -12.328125 -6.53125 L -9.109375 -15.140625 L -6.96875 -14.34375 L -9.234375 -8.296875 L -6.203125 -7.15625 L -4.21875 -12.4375 L -2.125 -11.65625 Z M -4.109375 -6.375 "/></g></g></g><g fill="#000000" fill-opacity="1"><g transform="translate(101.876857, 152.456864)"><g><path d="M -7.46875 -15.703125 L -5.4375 -14.65625 L -8.203125 -9.296875 L -4.9375 -7.625 L -2.421875 -12.5 L -0.421875 -11.46875 L -2.9375 -6.59375 L 2.0625 -4.03125 L 0.828125 -1.59375 L -11.46875 -7.90625 Z M -7.46875 -15.703125 "/></g></g></g><g fill="#000000" fill-opacity="1"><g transform="translate(106.500169, 143.175398)"><g><path d="M 4.4375 -6.140625 C 3.71875 -5.078125 2.863281 -4.296875 1.875 -3.796875 C 0.894531 -3.296875 -0.1875 -3.117188 -1.375 -3.265625 C -2.570312 -3.410156 -3.816406 -3.925781 -5.109375 -4.8125 C -6.390625 -5.6875 -7.3125 -6.648438 -7.875 -7.703125 C -8.4375 -8.753906 -8.664062 -9.828125 -8.5625 -10.921875 C -8.457031 -12.015625 -8.046875 -13.09375 -7.328125 -14.15625 C -6.578125 -15.25 -5.722656 -16.03125 -4.765625 -16.5 C -3.804688 -16.976562 -2.78125 -17.085938 -1.6875 -16.828125 L -1.796875 -14.5 L -1.9375 -14.296875 C -2.6875 -14.453125 -3.335938 -14.40625 -3.890625 -14.15625 C -4.441406 -13.914062 -4.9375 -13.472656 -5.375 -12.828125 C -6.019531 -11.878906 -6.207031 -10.921875 -5.9375 -9.953125 C -5.675781 -8.992188 -4.867188 -8.050781 -3.515625 -7.125 C -2.148438 -6.195312 -0.972656 -5.785156 0.015625 -5.890625 C 1.003906 -5.992188 1.820312 -6.519531 2.46875 -7.46875 C 3.476562 -8.945312 3.378906 -10.347656 2.171875 -11.671875 L 2.296875 -11.859375 L 4.3125 -12.9375 C 5.1875 -11.882812 5.632812 -10.796875 5.65625 -9.671875 C 5.6875 -8.546875 5.28125 -7.367188 4.4375 -6.140625 Z M 4.4375 -6.140625 "/></g></g></g><g fill="#000000" fill-opacity="1"><g transform="translate(113.522578, 132.674594)"><g><path d="M 5.265625 -5.40625 C 4.398438 -4.476562 3.445312 -3.832031 2.40625 -3.46875 C 1.375 -3.113281 0.28125 -3.09375 -0.875 -3.40625 C -2.03125 -3.726562 -3.191406 -4.425781 -4.359375 -5.5 C -5.523438 -6.570312 -6.3125 -7.664062 -6.71875 -8.78125 C -7.125 -9.90625 -7.191406 -11 -6.921875 -12.0625 C -6.648438 -13.125 -6.082031 -14.117188 -5.21875 -15.046875 C -4.363281 -15.972656 -3.414062 -16.617188 -2.375 -16.984375 C -1.34375 -17.347656 -0.253906 -17.367188 0.890625 -17.046875 C 2.035156 -16.734375 3.191406 -16.039062 4.359375 -14.96875 C 5.523438 -13.894531 6.316406 -12.796875 6.734375 -11.671875 C 7.160156 -10.546875 7.234375 -9.453125 6.953125 -8.390625 C 6.679688 -7.328125 6.117188 -6.332031 5.265625 -5.40625 Z M 3.515625 -7.015625 C 4.304688 -7.878906 4.632812 -8.789062 4.5 -9.75 C 4.363281 -10.71875 3.6875 -11.765625 2.46875 -12.890625 C 1.257812 -14.003906 0.164062 -14.59375 -0.8125 -14.65625 C -1.800781 -14.71875 -2.691406 -14.316406 -3.484375 -13.453125 C -4.285156 -12.585938 -4.613281 -11.664062 -4.46875 -10.6875 C -4.332031 -9.71875 -3.660156 -8.675781 -2.453125 -7.5625 C -1.234375 -6.4375 -0.132812 -5.847656 0.84375 -5.796875 C 1.820312 -5.742188 2.710938 -6.148438 3.515625 -7.015625 Z M 3.515625 -7.015625 "/></g></g></g><g fill="#000000" fill-opacity="1"><g transform="translate(123.001408, 122.25924)"><g><path d="M 3.484375 -2.78125 L 1.40625 -1.125 L -7.21875 -11.921875 L -4.78125 -13.875 L 5.109375 -10.390625 L 5.296875 -10.578125 L -0.234375 -17.5 L 1.8125 -19.140625 L 10.4375 -8.34375 L 8.25 -6.59375 L -2.28125 -10.359375 L -2.4375 -10.1875 Z M 3.484375 -2.78125 "/></g></g></g><g fill="#000000" fill-opacity="1"><g transform="translate(134.469394, 113.393351)"><g/></g></g><g fill="#000000" fill-opacity="1"><g transform="translate(137.639986, 111.025122)"><g><path d="M 6.0625 -2.90625 C 5.03125 -2.375 4.019531 -2.144531 3.03125 -2.21875 C 2.039062 -2.300781 1.097656 -2.707031 0.203125 -3.4375 C -0.679688 -4.175781 -1.488281 -5.242188 -2.21875 -6.640625 C -2.9375 -8.035156 -3.296875 -9.332031 -3.296875 -10.53125 C -3.304688 -11.726562 -3 -12.78125 -2.375 -13.6875 C -1.75 -14.601562 -0.863281 -15.359375 0.28125 -15.953125 C 1.457031 -16.554688 2.570312 -16.851562 3.625 -16.84375 C 4.675781 -16.832031 5.59375 -16.484375 6.375 -15.796875 L 5.171875 -13.828125 L 4.953125 -13.703125 C 4.410156 -14.128906 3.84375 -14.347656 3.25 -14.359375 C 2.664062 -14.367188 2.035156 -14.203125 1.359375 -13.859375 C 0.296875 -13.304688 -0.335938 -12.546875 -0.546875 -11.578125 C -0.753906 -10.617188 -0.476562 -9.40625 0.28125 -7.9375 C 1.050781 -6.445312 1.867188 -5.503906 2.734375 -5.109375 C 3.609375 -4.710938 4.5625 -4.78125 5.59375 -5.3125 C 6.476562 -5.769531 7.023438 -6.304688 7.234375 -6.921875 C 7.453125 -7.535156 7.359375 -8.234375 6.953125 -9.015625 L 6.6875 -9.546875 L 3.765625 -8.046875 L 2.734375 -10.03125 L 8.046875 -12.78125 L 11.5625 -6 L 9.25 -4.796875 L 8.390625 -6.453125 L 8.234375 -6.375 C 8.273438 -5.664062 8.117188 -5.007812 7.765625 -4.40625 C 7.421875 -3.8125 6.851562 -3.3125 6.0625 -2.90625 Z M 6.0625 -2.90625 "/></g></g></g><g fill="#000000" fill-opacity="1"><g transform="translate(149.642017, 104.792308)"><g><path d="M 1.6875 -0.59375 L -2.921875 -13.625 L 2.3125 -15.484375 C 3.664062 -15.960938 4.796875 -16.015625 5.703125 -15.640625 C 6.609375 -15.265625 7.253906 -14.523438 7.640625 -13.421875 C 7.921875 -12.640625 7.945312 -11.921875 7.71875 -11.265625 C 7.5 -10.617188 7.039062 -10.023438 6.34375 -9.484375 L 6.421875 -9.296875 C 6.890625 -9.265625 7.3125 -9.113281 7.6875 -8.84375 C 8.0625 -8.582031 8.484375 -8.148438 8.953125 -7.546875 L 11.640625 -4.109375 L 8.984375 -3.171875 L 6.328125 -6.625 C 6.054688 -6.976562 5.800781 -7.234375 5.5625 -7.390625 C 5.332031 -7.546875 5.070312 -7.628906 4.78125 -7.640625 C 4.488281 -7.648438 4.140625 -7.582031 3.734375 -7.4375 L 2.34375 -6.953125 L 4.265625 -1.515625 Z M 3.96875 -9.8125 C 5.21875 -10.25 5.632812 -11.050781 5.21875 -12.21875 C 4.800781 -13.40625 3.96875 -13.78125 2.71875 -13.34375 L 0.375 -12.515625 L 1.625 -8.984375 Z M 3.96875 -9.8125 "/></g></g></g><g fill="#000000" fill-opacity="1"><g transform="translate(160.926231, 100.653145)"><g><path d="M 7.453125 -1.28125 C 6.203125 -1.03125 5.050781 -1.0625 4 -1.375 C 2.945312 -1.695312 2.046875 -2.328125 1.296875 -3.265625 C 0.554688 -4.203125 0.03125 -5.445312 -0.28125 -7 C -0.59375 -8.550781 -0.582031 -9.898438 -0.25 -11.046875 C 0.0703125 -12.191406 0.65625 -13.113281 1.5 -13.8125 C 2.34375 -14.507812 3.390625 -14.984375 4.640625 -15.234375 C 5.867188 -15.484375 7.007812 -15.453125 8.0625 -15.140625 C 9.125 -14.828125 10.019531 -14.203125 10.75 -13.265625 C 11.488281 -12.328125 12.015625 -11.082031 12.328125 -9.53125 C 12.640625 -7.976562 12.632812 -6.625 12.3125 -5.46875 C 12 -4.320312 11.414062 -3.398438 10.5625 -2.703125 C 9.71875 -2.003906 8.679688 -1.53125 7.453125 -1.28125 Z M 6.984375 -3.609375 C 8.117188 -3.835938 8.914062 -4.382812 9.375 -5.25 C 9.832031 -6.113281 9.898438 -7.359375 9.578125 -8.984375 C 9.253906 -10.597656 8.710938 -11.710938 7.953125 -12.328125 C 7.191406 -12.953125 6.242188 -13.148438 5.109375 -12.921875 C 3.941406 -12.691406 3.128906 -12.140625 2.671875 -11.265625 C 2.210938 -10.398438 2.144531 -9.160156 2.46875 -7.546875 C 2.789062 -5.921875 3.332031 -4.800781 4.09375 -4.1875 C 4.851562 -3.570312 5.816406 -3.378906 6.984375 -3.609375 Z M 6.984375 -3.609375 "/></g></g></g><g fill="#000000" fill-opacity="1"><g transform="translate(174.735061, 97.818718)"><g><path d="M 7.328125 -0.15625 C 5.429688 -0.0625 4 -0.441406 3.03125 -1.296875 C 2.070312 -2.160156 1.550781 -3.484375 1.46875 -5.265625 L 1.0625 -13.890625 L 3.734375 -14.015625 L 4.140625 -5.40625 C 4.191406 -4.394531 4.46875 -3.648438 4.96875 -3.171875 C 5.476562 -2.691406 6.222656 -2.476562 7.203125 -2.53125 C 9.171875 -2.625 10.109375 -3.679688 10.015625 -5.703125 L 9.609375 -14.3125 L 12.28125 -14.4375 L 12.6875 -5.8125 C 12.769531 -4.03125 12.375 -2.660156 11.5 -1.703125 C 10.625 -0.753906 9.234375 -0.238281 7.328125 -0.15625 Z M 7.328125 -0.15625 "/></g></g></g><g fill="#000000" fill-opacity="1"><g transform="translate(188.480465, 97.165836)"><g><path d="M 8.359375 -13.125 C 9.347656 -13.03125 10.171875 -12.773438 10.828125 -12.359375 C 11.492188 -11.941406 11.976562 -11.390625 12.28125 -10.703125 C 12.582031 -10.015625 12.695312 -9.242188 12.625 -8.390625 C 12.539062 -7.523438 12.289062 -6.785156 11.875 -6.171875 C 11.457031 -5.554688 10.882812 -5.097656 10.15625 -4.796875 C 9.425781 -4.503906 8.566406 -4.40625 7.578125 -4.5 L 4.984375 -4.734375 L 4.515625 0.40625 L 1.796875 0.15625 L 3.046875 -13.609375 Z M 7.40625 -6.6875 C 8.925781 -6.550781 9.753906 -7.203125 9.890625 -8.640625 C 10.015625 -10.085938 9.316406 -10.878906 7.796875 -11.015625 L 5.5625 -11.21875 L 5.171875 -6.890625 Z M 7.40625 -6.6875 "/></g></g></g><g fill="#000000" fill-opacity="1"><g transform="translate(200.473524, 98.399141)"><g/></g></g><g fill="#000000" fill-opacity="1"><g transform="translate(204.485714, 98.962669)"><g><path d="M 4.640625 1.4375 C 3.503906 1.132812 2.613281 0.664062 1.96875 0.03125 C 1.332031 -0.601562 0.945312 -1.320312 0.8125 -2.125 L 2.75 -3.546875 L 2.984375 -3.5 C 3.078125 -2.832031 3.300781 -2.269531 3.65625 -1.8125 C 4.019531 -1.363281 4.492188 -1.0625 5.078125 -0.90625 C 5.742188 -0.726562 6.289062 -0.789062 6.71875 -1.09375 C 7.144531 -1.40625 7.472656 -2 7.703125 -2.875 L 10.015625 -11.671875 L 12.65625 -10.984375 L 10.328125 -2.140625 C 9.898438 -0.515625 9.21875 0.582031 8.28125 1.15625 C 7.351562 1.726562 6.140625 1.820312 4.640625 1.4375 Z M 4.640625 1.4375 "/></g></g></g><g fill="#000000" fill-opacity="1"><g transform="translate(214.531869, 101.470244)"><g><path d="M 12.3125 4.9375 L 9.640625 3.859375 L 9.875 0.53125 L 4.953125 -1.4375 L 2.796875 1.125 L 0.1875 0.078125 L 9.765625 -10.984375 L 13.03125 -9.6875 Z M 10.1875 -7.71875 L 6.5 -3.3125 L 10.03125 -1.890625 L 10.40625 -7.640625 Z M 10.1875 -7.71875 "/></g></g></g><g fill="#000000" fill-opacity="1"><g transform="translate(226.277039, 106.197407)"><g><path d="M 10.671875 -9.890625 L 5.078125 0.1875 L 10.515625 3.1875 L 9.40625 5.203125 L 1.578125 0.875 L 8.28125 -11.21875 Z M 10.671875 -9.890625 "/></g></g></g><g fill="#000000" fill-opacity="1"><g transform="translate(235.424929, 111.126051)"><g><path d="M 10.71875 7.828125 L 8.390625 6.125 L 9.4375 2.9375 L 5.15625 -0.1875 L 2.4375 1.78125 L 0.15625 0.125 L 12.1875 -8.234375 L 15.015625 -6.15625 Z M 11.765625 -4.96875 L 7.109375 -1.59375 L 10.171875 0.640625 L 11.953125 -4.828125 Z M 11.765625 -4.96875 "/></g></g></g><g fill="#000000" fill-opacity="1"><g transform="translate(245.634165, 118.419879)"><g><path d="M 3.1875 3.125 L 1.28125 1.265625 L 10.96875 -8.609375 L 13.203125 -6.421875 L 10.9375 3.828125 L 11.140625 3.984375 L 17.359375 -2.359375 L 19.234375 -0.515625 L 9.546875 9.359375 L 7.546875 7.390625 L 10 -3.515625 L 9.828125 -3.640625 Z M 3.1875 3.125 "/></g></g></g><g fill="#000000" fill-opacity="1"><g transform="translate(255.804994, 128.307775)"><g><path d="M 15.140625 -2.875 C 16.484375 -1.082031 17.039062 0.632812 16.8125 2.28125 C 16.59375 3.925781 15.570312 5.429688 13.75 6.796875 C 11.914062 8.171875 10.179688 8.734375 8.546875 8.484375 C 6.910156 8.234375 5.421875 7.210938 4.078125 5.421875 L 1.078125 1.4375 L 12.140625 -6.859375 Z M 5.8125 3.90625 C 6.664062 5.050781 7.597656 5.6875 8.609375 5.8125 C 9.617188 5.945312 10.769531 5.523438 12.0625 4.546875 C 13.351562 3.578125 14.078125 2.585938 14.234375 1.578125 C 14.390625 0.578125 14.039062 -0.492188 13.1875 -1.640625 L 11.9375 -3.296875 L 4.5625 2.25 Z M 5.8125 3.90625 "/></g></g></g><g fill="#000000" fill-opacity="1"><g transform="translate(264.168088, 139.291953)"><g><path d="M 12.6875 5.375 L 17.265625 2.921875 L 18.546875 5.328125 L 6.359375 11.859375 L 5.078125 9.453125 L 10.625 6.484375 L 7.6875 1.03125 L 2.140625 4 L 0.84375 1.578125 L 13.03125 -4.953125 L 14.328125 -2.53125 L 9.75 -0.078125 Z M 12.6875 5.375 "/></g></g></g><g fill="#000000" fill-opacity="1"><g transform="translate(270.933108, 151.905258)"><g><path d="M 4.515625 12.46875 L 3.53125 9.765625 L 6.1875 7.71875 L 4.375 2.75 L 1.03125 2.84375 L 0.0625 0.1875 L 14.6875 -0.015625 L 15.890625 3.296875 Z M 12.53125 2.46875 L 6.78125 2.65625 L 8.078125 6.21875 L 12.609375 2.6875 Z M 12.53125 2.46875 "/></g></g></g><g fill="#000000" fill-opacity="1"><g transform="translate(275.255892, 163.751307)"><g><path d="M 0.375 1.75 L 13.890625 -1.171875 L 15.0625 4.25 C 15.375 5.65625 15.285156 6.78125 14.796875 7.625 C 14.304688 8.476562 13.488281 9.03125 12.34375 9.28125 C 11.53125 9.457031 10.816406 9.394531 10.203125 9.09375 C 9.585938 8.789062 9.054688 8.257812 8.609375 7.5 L 8.40625 7.53125 C 8.320312 8 8.117188 8.398438 7.796875 8.734375 C 7.484375 9.078125 7 9.441406 6.34375 9.828125 L 2.609375 12.0625 L 2.015625 9.3125 L 5.78125 7.109375 C 6.15625 6.878906 6.4375 6.65625 6.625 6.4375 C 6.8125 6.226562 6.925781 5.976562 6.96875 5.6875 C 7.019531 5.40625 7 5.054688 6.90625 4.640625 L 6.59375 3.203125 L 0.953125 4.421875 Z M 9.234375 5.1875 C 9.515625 6.476562 10.257812 6.992188 11.46875 6.734375 C 12.695312 6.460938 13.171875 5.679688 12.890625 4.390625 L 12.359375 1.953125 L 8.703125 2.75 Z M 9.234375 5.1875 "/></g></g></g><g fill="#000000" fill-opacity="1"><g transform="translate(137.101513, 280.323667)"><g><path d="M 11.8125 -9.859375 C 13.863281 -8.953125 15.191406 -7.726562 15.796875 -6.1875 C 16.410156 -4.644531 16.25 -2.832031 15.3125 -0.75 C 14.382812 1.34375 13.144531 2.675781 11.59375 3.25 C 10.039062 3.832031 8.238281 3.671875 6.1875 2.765625 L 1.640625 0.734375 L 7.265625 -11.890625 Z M 6.96875 0.59375 C 8.269531 1.175781 9.394531 1.273438 10.34375 0.890625 C 11.289062 0.515625 12.09375 -0.414062 12.75 -1.90625 C 13.414062 -3.375 13.570312 -4.582031 13.21875 -5.53125 C 12.863281 -6.488281 12.035156 -7.257812 10.734375 -7.84375 L 8.84375 -8.6875 L 5.078125 -0.25 Z M 6.96875 0.59375 "/></g></g></g><g fill="#000000" fill-opacity="1"><g transform="translate(151.536484, 286.636647)"><g><path d="M 7.21875 2.265625 C 5.976562 1.910156 4.960938 1.34375 4.171875 0.5625 C 3.390625 -0.207031 2.878906 -1.175781 2.640625 -2.34375 C 2.410156 -3.519531 2.507812 -4.859375 2.9375 -6.359375 C 3.351562 -7.859375 3.96875 -9.039062 4.78125 -9.90625 C 5.601562 -10.78125 6.550781 -11.34375 7.625 -11.59375 C 8.707031 -11.84375 9.867188 -11.789062 11.109375 -11.4375 C 12.390625 -11.070312 13.40625 -10.515625 14.15625 -9.765625 C 14.90625 -9.015625 15.328125 -8.070312 15.421875 -6.9375 L 13.171875 -6.3125 L 12.9375 -6.375 C 12.84375 -7.144531 12.59375 -7.75 12.1875 -8.1875 C 11.789062 -8.632812 11.21875 -8.960938 10.46875 -9.171875 C 9.363281 -9.484375 8.394531 -9.359375 7.5625 -8.796875 C 6.738281 -8.242188 6.101562 -7.175781 5.65625 -5.59375 C 5.207031 -4.007812 5.1875 -2.765625 5.59375 -1.859375 C 6.007812 -0.953125 6.769531 -0.34375 7.875 -0.03125 C 9.59375 0.457031 10.882812 -0.0703125 11.75 -1.625 L 11.96875 -1.5625 L 13.625 -0.015625 C 12.914062 1.140625 12.023438 1.910156 10.953125 2.296875 C 9.890625 2.679688 8.644531 2.671875 7.21875 2.265625 Z M 7.21875 2.265625 "/></g></g></g><g fill="#000000" fill-opacity="1"><g transform="translate(165.523268, 290.562278)"><g><path d="M 6.625 1.109375 C 5.476562 0.953125 4.523438 0.554688 3.765625 -0.078125 C 3.003906 -0.710938 2.46875 -1.585938 2.15625 -2.703125 C 1.84375 -3.816406 1.789062 -5.15625 2 -6.71875 C 2.21875 -8.28125 2.664062 -9.550781 3.34375 -10.53125 C 4.03125 -11.507812 4.894531 -12.1875 5.9375 -12.5625 C 6.976562 -12.945312 8.140625 -13.054688 9.421875 -12.890625 C 10.722656 -12.710938 11.800781 -12.316406 12.65625 -11.703125 C 13.519531 -11.085938 14.066406 -10.273438 14.296875 -9.265625 L 12.1875 -8.328125 L 11.9375 -8.359375 C 11.738281 -9.023438 11.398438 -9.53125 10.921875 -9.875 C 10.453125 -10.21875 9.84375 -10.441406 9.09375 -10.546875 C 7.90625 -10.703125 6.945312 -10.445312 6.21875 -9.78125 C 5.5 -9.125 5.023438 -7.972656 4.796875 -6.328125 C 4.578125 -4.660156 4.707031 -3.414062 5.1875 -2.59375 C 5.664062 -1.769531 6.476562 -1.28125 7.625 -1.125 C 8.613281 -0.988281 9.375 -1.109375 9.90625 -1.484375 C 10.4375 -1.867188 10.757812 -2.5 10.875 -3.375 L 10.953125 -3.96875 L 7.703125 -4.40625 L 8.015625 -6.625 L 13.9375 -5.828125 L 12.90625 1.75 L 10.328125 1.40625 L 10.578125 -0.4375 L 10.390625 -0.484375 C 10.015625 0.128906 9.515625 0.578125 8.890625 0.859375 C 8.265625 1.140625 7.507812 1.222656 6.625 1.109375 Z M 6.625 1.109375 "/></g></g></g><g fill="#000000" fill-opacity="1"><g transform="translate(180.744893, 292.495535)"><g><path d="M 5.78125 0.1875 C 4.476562 0.195312 3.453125 -0.0546875 2.703125 -0.578125 C 1.953125 -1.109375 1.445312 -1.847656 1.1875 -2.796875 L 3.265625 -3.734375 L 3.484375 -3.6875 C 3.847656 -2.632812 4.609375 -2.113281 5.765625 -2.125 C 6.660156 -2.125 7.34375 -2.5 7.8125 -3.25 C 8.289062 -4 8.523438 -5.117188 8.515625 -6.609375 L 8.3125 -6.671875 C 8 -6.078125 7.59375 -5.625 7.09375 -5.3125 C 6.59375 -5 5.9375 -4.835938 5.125 -4.828125 C 4.300781 -4.828125 3.570312 -5.007812 2.9375 -5.375 C 2.300781 -5.75 1.8125 -6.273438 1.46875 -6.953125 C 1.125 -7.628906 0.953125 -8.425781 0.953125 -9.34375 C 0.953125 -10.289062 1.148438 -11.117188 1.546875 -11.828125 C 1.953125 -12.535156 2.523438 -13.078125 3.265625 -13.453125 C 4.015625 -13.835938 4.882812 -14.035156 5.875 -14.046875 C 7.582031 -14.046875 8.914062 -13.503906 9.875 -12.421875 C 10.84375 -11.335938 11.328125 -9.597656 11.328125 -7.203125 C 11.335938 -5.546875 11.117188 -4.164062 10.671875 -3.0625 C 10.234375 -1.96875 9.597656 -1.148438 8.765625 -0.609375 C 7.929688 -0.078125 6.9375 0.1875 5.78125 0.1875 Z M 5.953125 -7.09375 C 6.660156 -7.09375 7.21875 -7.300781 7.625 -7.71875 C 8.039062 -8.132812 8.25 -8.695312 8.25 -9.40625 C 8.25 -10.113281 8.046875 -10.675781 7.640625 -11.09375 C 7.234375 -11.507812 6.671875 -11.71875 5.953125 -11.71875 C 5.242188 -11.707031 4.691406 -11.5 4.296875 -11.09375 C 3.898438 -10.6875 3.703125 -10.117188 3.703125 -9.390625 C 3.703125 -8.648438 3.898438 -8.078125 4.296875 -7.671875 C 4.691406 -7.273438 5.242188 -7.082031 5.953125 -7.09375 Z M 5.953125 -7.09375 "/></g></g></g><g fill="#000000" fill-opacity="1"><g transform="translate(194.019583, 292.365678)"><g><path d="M 0.734375 -0.078125 L 0.46875 -2.328125 L 3.765625 -2.71875 L 2.765625 -11.265625 L 2.546875 -11.296875 C 2.109375 -11.015625 1.664062 -10.78125 1.21875 -10.59375 C 0.78125 -10.414062 0.28125 -10.257812 -0.28125 -10.125 L -0.546875 -12.4375 C 0.929688 -12.925781 2.101562 -13.535156 2.96875 -14.265625 L 5.125 -14.515625 L 6.46875 -3.03125 L 9.421875 -3.375 L 9.6875 -1.125 Z M 0.734375 -0.078125 "/></g></g></g><g fill="#000000" fill-opacity="1"><g transform="translate(204.841851, 291.065332)"><g><path d="M 0.71875 -0.15625 L 0.21875 -2.375 L 3.46875 -3.109375 L 1.59375 -11.5 L 1.375 -11.5 C 0.957031 -11.1875 0.539062 -10.910156 0.125 -10.671875 C -0.289062 -10.441406 -0.769531 -10.226562 -1.3125 -10.03125 L -1.828125 -12.296875 C -0.410156 -12.941406 0.691406 -13.675781 1.484375 -14.5 L 3.609375 -14.984375 L 6.125 -3.703125 L 9.015625 -4.34375 L 9.515625 -2.125 Z M 0.71875 -0.15625 "/></g></g></g><g fill="#000000" fill-opacity="1"><g transform="translate(215.540189, 288.682825)"><g><path d="M 5.671875 -1.75 C 4.628906 -1.382812 3.691406 -1.238281 2.859375 -1.3125 C 2.035156 -1.394531 1.335938 -1.671875 0.765625 -2.140625 C 0.191406 -2.617188 -0.234375 -3.265625 -0.515625 -4.078125 C -0.773438 -4.835938 -0.804688 -5.554688 -0.609375 -6.234375 C -0.421875 -6.921875 -0.0195312 -7.539062 0.59375 -8.09375 L 0.515625 -8.28125 C -0.0976562 -8.425781 -0.613281 -8.671875 -1.03125 -9.015625 C -1.457031 -9.367188 -1.769531 -9.835938 -1.96875 -10.421875 C -2.195312 -11.078125 -2.234375 -11.710938 -2.078125 -12.328125 C -1.929688 -12.941406 -1.59375 -13.5 -1.0625 -14 C -0.53125 -14.5 0.171875 -14.898438 1.046875 -15.203125 C 1.929688 -15.492188 2.734375 -15.609375 3.453125 -15.546875 C 4.179688 -15.484375 4.789062 -15.253906 5.28125 -14.859375 C 5.78125 -14.460938 6.144531 -13.9375 6.375 -13.28125 C 6.570312 -12.695312 6.609375 -12.140625 6.484375 -11.609375 C 6.367188 -11.085938 6.101562 -10.570312 5.6875 -10.0625 L 5.765625 -9.875 C 6.640625 -9.832031 7.347656 -9.59375 7.890625 -9.15625 C 8.429688 -8.726562 8.832031 -8.132812 9.09375 -7.375 C 9.375 -6.5625 9.4375 -5.789062 9.28125 -5.0625 C 9.125 -4.34375 8.742188 -3.695312 8.140625 -3.125 C 7.535156 -2.5625 6.710938 -2.101562 5.671875 -1.75 Z M 2.859375 -9.9375 C 3.378906 -10.101562 3.742188 -10.378906 3.953125 -10.765625 C 4.160156 -11.160156 4.179688 -11.613281 4.015625 -12.125 C 3.835938 -12.632812 3.539062 -12.984375 3.125 -13.171875 C 2.71875 -13.359375 2.253906 -13.367188 1.734375 -13.203125 C 1.203125 -13.015625 0.832031 -12.722656 0.625 -12.328125 C 0.425781 -11.929688 0.421875 -11.472656 0.609375 -10.953125 C 0.785156 -10.441406 1.070312 -10.097656 1.46875 -9.921875 C 1.863281 -9.742188 2.328125 -9.75 2.859375 -9.9375 Z M 4.921875 -3.953125 C 5.617188 -4.179688 6.097656 -4.535156 6.359375 -5.015625 C 6.617188 -5.503906 6.640625 -6.054688 6.421875 -6.671875 C 6.210938 -7.296875 5.859375 -7.710938 5.359375 -7.921875 C 4.859375 -8.140625 4.257812 -8.132812 3.5625 -7.90625 C 2.851562 -7.65625 2.367188 -7.289062 2.109375 -6.8125 C 1.847656 -6.332031 1.820312 -5.78125 2.03125 -5.15625 C 2.25 -4.539062 2.609375 -4.125 3.109375 -3.90625 C 3.609375 -3.6875 4.210938 -3.703125 4.921875 -3.953125 Z M 4.921875 -3.953125 "/></g></g></g><g fill="#000000" fill-opacity="1"><g transform="translate(227.437162, 284.500483)"><g><path d="M 0.65625 -0.3125 L -0.3125 -2.359375 L 2.703125 -3.78125 L -0.984375 -11.5625 L -1.203125 -11.515625 C -1.523438 -11.117188 -1.863281 -10.757812 -2.21875 -10.4375 C -2.582031 -10.113281 -3.007812 -9.796875 -3.5 -9.484375 L -4.5 -11.578125 C -3.257812 -12.523438 -2.34375 -13.488281 -1.75 -14.46875 L 0.203125 -15.40625 L 5.15625 -4.953125 L 7.84375 -6.21875 L 8.8125 -4.171875 Z M 0.65625 -0.3125 "/></g></g></g></svg>